<svg width="52" height="52" viewBox="0 0 52 52" fill="none" xmlns="http://www.w3.org/2000/svg">
<g clip-path="url(#clip0_40787_110464)">
<path d="M0 52.001L52 52.001L52 2.28882e-05L0 2.28882e-05L0 52.001Z" fill="white"/>
<rect width="52" height="52" fill="white"/>
<g clip-path="url(#clip1_40787_110464)">
<path d="M31.5208 10.125L31.4075 10.1462L27.625 11.6125L23.375 10.125L19.38 11.4708C19.2312 11.5204 19.125 11.6479 19.125 11.8108V22.5208C19.125 22.7192 19.2808 22.875 19.4792 22.875L19.5925 22.8537L23.375 21.3875L27.625 22.875L31.62 21.5292C31.7687 21.4796 31.875 21.3521 31.875 21.1892V10.4792C31.875 10.2808 31.7192 10.125 31.5208 10.125ZM24.0833 11.8746L26.9167 12.8662V21.1254L24.0833 20.1337V11.8746ZM20.5417 12.5758L22.6667 11.8604V20.1479L20.5417 20.9696V12.5758ZM30.4583 20.4242L28.3333 21.1396V12.8592L30.4583 12.0375V20.4242Z" fill="#2BB960"/>
</g>
<path d="M9.66262 32.881V30.0909H11.2223V35H9.73293V34.0859H9.6818C9.57313 34.3864 9.38776 34.625 9.12569 34.8018C8.86574 34.9766 8.55147 35.0639 8.18286 35.0639C7.84834 35.0639 7.55431 34.9872 7.30076 34.8338C7.04721 34.6804 6.85012 34.4663 6.70949 34.1914C6.56887 33.9144 6.49749 33.5905 6.49536 33.2198V30.0909H8.05822V32.913C8.06035 33.1793 8.13066 33.3892 8.26915 33.5426C8.40765 33.696 8.59621 33.7727 8.83485 33.7727C8.99039 33.7727 9.12995 33.7386 9.25353 33.6704C9.37924 33.6001 9.47832 33.4989 9.55076 33.3668C9.62533 33.2326 9.66262 33.0707 9.66262 32.881Z" fill="#2BB960"/>
<path d="M16.5029 31.5898L15.0679 31.6282C15.053 31.5259 15.0125 31.4354 14.9464 31.3565C14.8804 31.2756 14.7941 31.2127 14.6876 31.168C14.5832 31.1211 14.4617 31.0976 14.3232 31.0976C14.1421 31.0976 13.9876 31.1339 13.8598 31.2063C13.7341 31.2788 13.6723 31.3768 13.6744 31.5003C13.6723 31.5962 13.7106 31.6793 13.7895 31.7496C13.8704 31.8199 14.0143 31.8764 14.2209 31.919L15.167 32.098C15.657 32.1918 16.0214 32.3473 16.26 32.5646C16.5008 32.7819 16.6222 33.0696 16.6244 33.4275C16.6222 33.7642 16.5221 34.0572 16.3239 34.3065C16.1279 34.5557 15.8594 34.7496 15.5185 34.8881C15.1776 35.0245 14.7877 35.0927 14.3488 35.0927C13.6478 35.0927 13.0949 34.9489 12.6901 34.6612C12.2874 34.3714 12.0572 33.9837 11.9997 33.4979L13.5434 33.4595C13.5775 33.6385 13.6659 33.7748 13.8087 33.8686C13.9514 33.9623 14.1336 34.0092 14.3552 34.0092C14.5555 34.0092 14.7185 33.9719 14.8442 33.8974C14.9699 33.8228 15.0338 33.7237 15.0359 33.6001C15.0338 33.4893 14.9848 33.4009 14.8889 33.3349C14.793 33.2667 14.6428 33.2134 14.4383 33.1751L13.5817 33.0121C13.0896 32.9226 12.7231 32.7574 12.4823 32.5167C12.2415 32.2738 12.1222 31.9648 12.1244 31.5898C12.1222 31.2617 12.2096 30.9815 12.3864 30.7493C12.5633 30.5149 12.8147 30.3359 13.1407 30.2123C13.4667 30.0888 13.8513 30.027 14.2945 30.027C14.9592 30.027 15.4834 30.1665 15.8669 30.4457C16.2504 30.7226 16.4624 31.104 16.5029 31.5898Z" fill="#2BB960"/>
<path d="M19.6885 35.0927C19.175 35.0927 18.7319 34.9915 18.359 34.7891C17.9883 34.5845 17.7027 34.2937 17.5025 33.9165C17.3043 33.5373 17.2052 33.0866 17.2052 32.5646C17.2052 32.0575 17.3054 31.6143 17.5057 31.2351C17.7059 30.8537 17.9883 30.5575 18.3526 30.3466C18.717 30.1335 19.1463 30.027 19.6406 30.027C19.99 30.027 20.3096 30.0813 20.5994 30.19C20.8892 30.2986 21.1395 30.4595 21.3505 30.6726C21.5614 30.8856 21.7255 31.1488 21.8427 31.462C21.9599 31.7731 22.0184 32.13 22.0184 32.5327V32.9226H17.7518V32.0149H20.5643C20.5621 31.8487 20.5227 31.7006 20.446 31.5707C20.3693 31.4407 20.2638 31.3395 20.1296 31.267C19.9975 31.1925 19.8451 31.1552 19.6726 31.1552C19.4978 31.1552 19.3412 31.1946 19.2027 31.2734C19.0643 31.3501 18.9545 31.4556 18.8736 31.5898C18.7926 31.7219 18.75 31.8721 18.7457 32.0405V32.9641C18.7457 33.1644 18.7851 33.3402 18.864 33.4915C18.9428 33.6406 19.0547 33.7567 19.1996 33.8398C19.3444 33.9229 19.517 33.9645 19.7173 33.9645C19.8558 33.9645 19.9815 33.9453 20.0944 33.9069C20.2074 33.8686 20.3043 33.8121 20.3853 33.7376C20.4662 33.663 20.527 33.5714 20.5674 33.4627L22.0025 33.5043C21.9428 33.826 21.8118 34.1062 21.6094 34.3448C21.4091 34.5813 21.1459 34.7656 20.8199 34.8977C20.4939 35.0277 20.1168 35.0927 19.6885 35.0927Z" fill="#2BB960"/>
<path d="M22.8167 35V30.0909H24.3028V30.9922H24.3571C24.4594 30.6939 24.632 30.4584 24.8749 30.2859C25.1178 30.1133 25.4076 30.027 25.7442 30.027C26.0851 30.027 26.377 30.1143 26.6199 30.2891C26.8628 30.4638 27.0173 30.6981 27.0833 30.9922H27.1345C27.2261 30.7003 27.4051 30.467 27.6714 30.2922C27.9377 30.1154 28.252 30.027 28.6142 30.027C29.0787 30.027 29.4559 30.1761 29.7456 30.4744C30.0354 30.7706 30.1803 31.1775 30.1803 31.6953V35H28.6174V32.0533C28.6174 31.8082 28.5546 31.6218 28.4289 31.494C28.3032 31.364 28.1402 31.299 27.9399 31.299C27.7247 31.299 27.5553 31.3693 27.4317 31.5099C27.3103 31.6484 27.2495 31.8349 27.2495 32.0692V35H25.7474V32.0373C25.7474 31.8093 25.6856 31.6293 25.562 31.4971C25.4385 31.365 25.2755 31.299 25.073 31.299C24.9367 31.299 24.8163 31.332 24.7119 31.3981C24.6075 31.462 24.5255 31.5536 24.4658 31.6729C24.4083 31.7922 24.3795 31.9329 24.3795 32.0948V35H22.8167Z" fill="#2BB960"/>
<path d="M32.5326 35.0831C32.2194 35.0831 31.9413 35.0309 31.6984 34.9265C31.4576 34.8199 31.2669 34.6601 31.1263 34.4471C30.9878 34.2319 30.9186 33.9623 30.9186 33.6385C30.9186 33.3658 30.9665 33.1356 31.0624 32.9481C31.1583 32.7606 31.2904 32.6083 31.4587 32.4911C31.627 32.3739 31.8209 32.2855 32.0404 32.2258C32.2598 32.1641 32.4942 32.1225 32.7435 32.1012C33.0226 32.0756 33.2474 32.049 33.4179 32.0213C33.5883 31.9915 33.7119 31.9499 33.7886 31.8967C33.8674 31.8413 33.9068 31.7635 33.9068 31.6633V31.6474C33.9068 31.4833 33.8504 31.3565 33.7375 31.267C33.6245 31.1775 33.4722 31.1328 33.2804 31.1328C33.0738 31.1328 32.9076 31.1775 32.7818 31.267C32.6561 31.3565 32.5762 31.4801 32.5421 31.6378L31.1007 31.5866C31.1434 31.2883 31.2531 31.022 31.4299 30.7876C31.6089 30.5511 31.8539 30.3658 32.165 30.2315C32.4782 30.0952 32.8543 30.027 33.2932 30.027C33.6064 30.027 33.8951 30.0643 34.1593 30.1388C34.4235 30.2113 34.6537 30.3178 34.8497 30.4584C35.0457 30.5969 35.197 30.7674 35.3035 30.9698C35.4122 31.1722 35.4665 31.4034 35.4665 31.6633V35H33.9963V34.316H33.958C33.8706 34.4822 33.7588 34.6229 33.6224 34.7379C33.4882 34.853 33.3294 34.9393 33.1462 34.9968C32.9651 35.0543 32.7605 35.0831 32.5326 35.0831ZM33.0152 34.0604C33.1835 34.0604 33.3348 34.0263 33.469 33.9581C33.6054 33.8899 33.714 33.7962 33.795 33.6768C33.876 33.5554 33.9164 33.4148 33.9164 33.255V32.7883C33.8717 32.8118 33.8174 32.8331 33.7534 32.8523C33.6917 32.8714 33.6235 32.8895 33.5489 32.9066C33.4743 32.9236 33.3976 32.9386 33.3188 32.9513C33.2399 32.9641 33.1643 32.9758 33.0919 32.9865C32.9448 33.0099 32.8191 33.0462 32.7147 33.0952C32.6125 33.1442 32.5336 33.2081 32.4782 33.2869C32.425 33.3636 32.3983 33.4552 32.3983 33.5618C32.3983 33.7237 32.4559 33.8473 32.5709 33.9325C32.6881 34.0177 32.8362 34.0604 33.0152 34.0604Z" fill="#2BB960"/>
<path d="M36.4221 36.8409V30.0909H37.969V30.9315H38.0169C38.0809 30.7823 38.1714 30.6385 38.2886 30.5C38.4079 30.3615 38.5592 30.2486 38.7424 30.1612C38.9278 30.0717 39.1494 30.027 39.4072 30.027C39.7481 30.027 40.0667 30.1165 40.3628 30.2954C40.6611 30.4744 40.9019 30.7503 41.0851 31.1232C41.2684 31.4961 41.36 31.9712 41.36 32.5486C41.36 33.1047 41.2716 33.5703 41.0947 33.9453C40.92 34.3203 40.6835 34.6016 40.3852 34.7891C40.089 34.9766 39.7598 35.0703 39.3976 35.0703C39.1505 35.0703 38.9363 35.0298 38.7552 34.9489C38.5741 34.8679 38.4218 34.7614 38.2982 34.6293C38.1767 34.4971 38.083 34.3555 38.0169 34.2042H37.985V36.8409H36.4221ZM37.953 32.5454C37.953 32.8096 37.9882 33.0398 38.0585 33.2358C38.1309 33.4318 38.2343 33.5842 38.3685 33.6928C38.5049 33.7993 38.6679 33.8526 38.8575 33.8526C39.0492 33.8526 39.2122 33.7993 39.3465 33.6928C39.4807 33.5842 39.5819 33.4318 39.6501 33.2358C39.7204 33.0398 39.7556 32.8096 39.7556 32.5454C39.7556 32.2812 39.7204 32.0522 39.6501 31.8583C39.5819 31.6644 39.4807 31.5142 39.3465 31.4077C39.2144 31.3011 39.0514 31.2479 38.8575 31.2479C38.6657 31.2479 38.5027 31.3001 38.3685 31.4045C38.2343 31.5089 38.1309 31.658 38.0585 31.8519C37.9882 32.0458 37.953 32.277 37.953 32.5454Z" fill="#2BB960"/>
<path d="M46.4648 31.5898L45.0298 31.6282C45.0149 31.5259 44.9744 31.4354 44.9084 31.3565C44.8423 31.2756 44.756 31.2127 44.6495 31.168C44.5451 31.1211 44.4236 31.0976 44.2851 31.0976C44.104 31.0976 43.9496 31.1339 43.8217 31.2063C43.696 31.2788 43.6342 31.3768 43.6363 31.5003C43.6342 31.5962 43.6726 31.6793 43.7514 31.7496C43.8324 31.8199 43.9762 31.8764 44.1829 31.919L45.1289 32.098C45.6189 32.1918 45.9833 32.3473 46.2219 32.5646C46.4627 32.7819 46.5841 33.0696 46.5863 33.4275C46.5841 33.7642 46.484 34.0572 46.2858 34.3065C46.0898 34.5557 45.8214 34.7496 45.4804 34.8881C45.1395 35.0245 44.7496 35.0927 44.3107 35.0927C43.6097 35.0927 43.0568 34.9489 42.652 34.6612C42.2493 34.3714 42.0192 33.9837 41.9616 33.4979L43.5053 33.4595C43.5394 33.6385 43.6278 33.7748 43.7706 33.8686C43.9133 33.9623 44.0955 34.0092 44.3171 34.0092C44.5174 34.0092 44.6804 33.9719 44.8061 33.8974C44.9318 33.8228 44.9957 33.7237 44.9978 33.6001C44.9957 33.4893 44.9467 33.4009 44.8508 33.3349C44.7549 33.2667 44.6047 33.2134 44.4002 33.1751L43.5437 33.0121C43.0515 32.9226 42.685 32.7574 42.4442 32.5167C42.2035 32.2738 42.0841 31.9648 42.0863 31.5898C42.0841 31.2617 42.1715 30.9815 42.3483 30.7493C42.5252 30.5149 42.7766 30.3359 43.1026 30.2123C43.4286 30.0888 43.8132 30.027 44.2564 30.027C44.9211 30.027 45.4453 30.1665 45.8288 30.4457C46.2123 30.7226 46.4243 31.104 46.4648 31.5898Z" fill="#2BB960"/>
</g>
<defs>
<clipPath id="clip0_40787_110464">
<rect width="52" height="52" rx="2" fill="white"/>
</clipPath>
<clipPath id="clip1_40787_110464">
<rect width="17" height="17" fill="white" transform="translate(17 8)"/>
</clipPath>
</defs>
</svg>
